<mxfile host="app.diagrams.net" agent="Mozilla/5.0 (Windows NT 10.0; Win64; x64) AppleWebKit/537.36 (KHTML, like Gecko) Chrome/131.0.0.0 Safari/537.36 Edg/131.0.0.0" version="24.9.3">
  <diagram name="Page-1" id="8DfDTJPME7hWj9S83FCF">
    <mxGraphModel dx="2584" dy="922" grid="1" gridSize="10" guides="1" tooltips="1" connect="1" arrows="1" fold="1" page="1" pageScale="1" pageWidth="827" pageHeight="1169" math="1" shadow="0">
      <root>
        <mxCell id="0" />
        <mxCell id="1" parent="0" />
        <mxCell id="PVPEMX5kZ_Wx4r42kiYc-27" value="" style="group" vertex="1" connectable="0" parent="1">
          <mxGeometry x="-120" y="235" width="120" height="120" as="geometry" />
        </mxCell>
        <mxCell id="PVPEMX5kZ_Wx4r42kiYc-20" value="" style="rounded=0;whiteSpace=wrap;html=1;" vertex="1" parent="PVPEMX5kZ_Wx4r42kiYc-27">
          <mxGeometry width="80" height="80" as="geometry" />
        </mxCell>
        <mxCell id="PVPEMX5kZ_Wx4r42kiYc-21" value="" style="rounded=0;whiteSpace=wrap;html=1;" vertex="1" parent="PVPEMX5kZ_Wx4r42kiYc-27">
          <mxGeometry x="10" y="10" width="80" height="80" as="geometry" />
        </mxCell>
        <mxCell id="PVPEMX5kZ_Wx4r42kiYc-22" value="" style="rounded=0;whiteSpace=wrap;html=1;" vertex="1" parent="PVPEMX5kZ_Wx4r42kiYc-27">
          <mxGeometry x="20" y="20" width="80" height="80" as="geometry" />
        </mxCell>
        <mxCell id="PVPEMX5kZ_Wx4r42kiYc-23" value="" style="rounded=0;whiteSpace=wrap;html=1;" vertex="1" parent="PVPEMX5kZ_Wx4r42kiYc-27">
          <mxGeometry x="30" y="30" width="80" height="80" as="geometry" />
        </mxCell>
        <mxCell id="PVPEMX5kZ_Wx4r42kiYc-24" value="" style="rounded=0;whiteSpace=wrap;html=1;" vertex="1" parent="PVPEMX5kZ_Wx4r42kiYc-27">
          <mxGeometry x="40" y="40" width="80" height="80" as="geometry" />
        </mxCell>
        <mxCell id="PVPEMX5kZ_Wx4r42kiYc-25" value="Images" style="text;html=1;align=center;verticalAlign=middle;whiteSpace=wrap;rounded=0;" vertex="1" parent="PVPEMX5kZ_Wx4r42kiYc-27">
          <mxGeometry x="50" y="65" width="60" height="30" as="geometry" />
        </mxCell>
        <mxCell id="PVPEMX5kZ_Wx4r42kiYc-28" value="Feed-Forward through the pretrained model" style="rounded=1;whiteSpace=wrap;html=1;arcSize=25;" vertex="1" parent="1">
          <mxGeometry x="260" y="355" width="140" height="50" as="geometry" />
        </mxCell>
        <mxCell id="PVPEMX5kZ_Wx4r42kiYc-30" style="edgeStyle=orthogonalEdgeStyle;rounded=0;orthogonalLoop=1;jettySize=auto;html=1;exitX=1;exitY=0.25;exitDx=0;exitDy=0;entryX=0;entryY=0.25;entryDx=0;entryDy=0;" edge="1" parent="1" source="PVPEMX5kZ_Wx4r42kiYc-24" target="PVPEMX5kZ_Wx4r42kiYc-28">
          <mxGeometry relative="1" as="geometry">
            <Array as="points">
              <mxPoint x="130" y="295" />
              <mxPoint x="130" y="368" />
            </Array>
          </mxGeometry>
        </mxCell>
        <mxCell id="PVPEMX5kZ_Wx4r42kiYc-35" style="edgeStyle=orthogonalEdgeStyle;rounded=0;orthogonalLoop=1;jettySize=auto;html=1;entryX=0;entryY=0.5;entryDx=0;entryDy=0;" edge="1" parent="1" source="PVPEMX5kZ_Wx4r42kiYc-33" target="PVPEMX5kZ_Wx4r42kiYc-34">
          <mxGeometry relative="1" as="geometry" />
        </mxCell>
        <mxCell id="PVPEMX5kZ_Wx4r42kiYc-57" style="edgeStyle=orthogonalEdgeStyle;rounded=0;orthogonalLoop=1;jettySize=auto;html=1;entryX=0.5;entryY=0;entryDx=0;entryDy=0;" edge="1" parent="1" source="PVPEMX5kZ_Wx4r42kiYc-34" target="PVPEMX5kZ_Wx4r42kiYc-37">
          <mxGeometry relative="1" as="geometry" />
        </mxCell>
        <mxCell id="PVPEMX5kZ_Wx4r42kiYc-34" value="Define the threshold&amp;nbsp;Î»&amp;nbsp;for sensitivity@0.9" style="rounded=1;whiteSpace=wrap;html=1;arcSize=33;" vertex="1" parent="1">
          <mxGeometry x="580" y="355" width="180" height="50" as="geometry" />
        </mxCell>
        <mxCell id="PVPEMX5kZ_Wx4r42kiYc-36" value="" style="edgeStyle=orthogonalEdgeStyle;rounded=0;orthogonalLoop=1;jettySize=auto;html=1;entryX=0;entryY=0.5;entryDx=0;entryDy=0;endArrow=none;endFill=0;" edge="1" parent="1" source="PVPEMX5kZ_Wx4r42kiYc-28" target="PVPEMX5kZ_Wx4r42kiYc-33">
          <mxGeometry relative="1" as="geometry">
            <mxPoint x="400" y="380" as="sourcePoint" />
            <mxPoint x="490" y="380" as="targetPoint" />
          </mxGeometry>
        </mxCell>
        <mxCell id="PVPEMX5kZ_Wx4r42kiYc-33" value="" style="ellipse;whiteSpace=wrap;html=1;aspect=fixed;fillColor=#d5e8d4;strokeColor=#82b366;" vertex="1" parent="1">
          <mxGeometry x="480" y="370" width="20" height="20" as="geometry" />
        </mxCell>
        <mxCell id="PVPEMX5kZ_Wx4r42kiYc-75" style="edgeStyle=orthogonalEdgeStyle;rounded=0;orthogonalLoop=1;jettySize=auto;html=1;entryX=0.5;entryY=0;entryDx=0;entryDy=0;" edge="1" parent="1" source="PVPEMX5kZ_Wx4r42kiYc-37" target="PVPEMX5kZ_Wx4r42kiYc-68">
          <mxGeometry relative="1" as="geometry">
            <mxPoint x="330" y="600" as="targetPoint" />
          </mxGeometry>
        </mxCell>
        <mxCell id="PVPEMX5kZ_Wx4r42kiYc-37" value="Select FP images $$b=b_i(\lambda)$$" style="rounded=1;whiteSpace=wrap;html=1;arcSize=20;spacingTop=9;fillColor=#1ba1e2;fontColor=#ffffff;strokeColor=#33001A;" vertex="1" parent="1">
          <mxGeometry x="580" y="460" width="180" height="80" as="geometry" />
        </mxCell>
        <mxCell id="PVPEMX5kZ_Wx4r42kiYc-44" value="" style="group" vertex="1" connectable="0" parent="1">
          <mxGeometry x="60" y="640" width="120" height="120" as="geometry" />
        </mxCell>
        <mxCell id="PVPEMX5kZ_Wx4r42kiYc-45" value="" style="rounded=0;whiteSpace=wrap;html=1;" vertex="1" parent="PVPEMX5kZ_Wx4r42kiYc-44">
          <mxGeometry width="80" height="80" as="geometry" />
        </mxCell>
        <mxCell id="PVPEMX5kZ_Wx4r42kiYc-46" value="" style="rounded=0;whiteSpace=wrap;html=1;fillColor=#1ba1e2;strokeColor=#006EAF;fontColor=#ffffff;" vertex="1" parent="PVPEMX5kZ_Wx4r42kiYc-44">
          <mxGeometry x="10" y="10" width="80" height="80" as="geometry" />
        </mxCell>
        <mxCell id="PVPEMX5kZ_Wx4r42kiYc-47" value="" style="rounded=0;whiteSpace=wrap;html=1;" vertex="1" parent="PVPEMX5kZ_Wx4r42kiYc-44">
          <mxGeometry x="20" y="20" width="80" height="80" as="geometry" />
        </mxCell>
        <mxCell id="PVPEMX5kZ_Wx4r42kiYc-48" value="" style="rounded=0;whiteSpace=wrap;html=1;fillColor=#1ba1e2;strokeColor=#006EAF;fontColor=#ffffff;" vertex="1" parent="PVPEMX5kZ_Wx4r42kiYc-44">
          <mxGeometry x="30" y="30" width="80" height="80" as="geometry" />
        </mxCell>
        <mxCell id="PVPEMX5kZ_Wx4r42kiYc-49" value="" style="rounded=0;whiteSpace=wrap;html=1;" vertex="1" parent="PVPEMX5kZ_Wx4r42kiYc-44">
          <mxGeometry x="40" y="40" width="80" height="80" as="geometry" />
        </mxCell>
        <mxCell id="PVPEMX5kZ_Wx4r42kiYc-50" value="Images" style="text;html=1;align=center;verticalAlign=middle;whiteSpace=wrap;rounded=0;" vertex="1" parent="PVPEMX5kZ_Wx4r42kiYc-44">
          <mxGeometry x="50" y="65" width="60" height="30" as="geometry" />
        </mxCell>
        <mxCell id="PVPEMX5kZ_Wx4r42kiYc-56" value="Predictions" style="text;html=1;align=center;verticalAlign=middle;whiteSpace=wrap;rounded=0;" vertex="1" parent="1">
          <mxGeometry x="460" y="340" width="60" height="30" as="geometry" />
        </mxCell>
        <mxCell id="PVPEMX5kZ_Wx4r42kiYc-95" style="edgeStyle=orthogonalEdgeStyle;rounded=0;orthogonalLoop=1;jettySize=auto;html=1;entryX=0.5;entryY=0;entryDx=0;entryDy=0;" edge="1" parent="1" source="PVPEMX5kZ_Wx4r42kiYc-67" target="PVPEMX5kZ_Wx4r42kiYc-87">
          <mxGeometry relative="1" as="geometry" />
        </mxCell>
        <mxCell id="PVPEMX5kZ_Wx4r42kiYc-67" value="Fine-tune the pretrained model" style="rounded=1;whiteSpace=wrap;html=1;arcSize=17;" vertex="1" parent="1">
          <mxGeometry x="272" y="675" width="116" height="50" as="geometry" />
        </mxCell>
        <mxCell id="PVPEMX5kZ_Wx4r42kiYc-76" style="edgeStyle=orthogonalEdgeStyle;rounded=0;orthogonalLoop=1;jettySize=auto;html=1;exitX=0.5;exitY=1;exitDx=0;exitDy=0;entryX=0.5;entryY=0;entryDx=0;entryDy=0;startArrow=classic;startFill=1;" edge="1" parent="1" source="PVPEMX5kZ_Wx4r42kiYc-68" target="PVPEMX5kZ_Wx4r42kiYc-67">
          <mxGeometry relative="1" as="geometry" />
        </mxCell>
        <mxCell id="PVPEMX5kZ_Wx4r42kiYc-68" value="&lt;div&gt;&lt;span style=&quot;background-color: initial;&quot;&gt;$$l_b=-\sum_{i} y_i\log(\hat{y}_i-b_i)+ (1 - y_i) \log(1 - \hat{y}_i+b_i)$$&lt;/span&gt;&lt;/div&gt;" style="rounded=1;whiteSpace=wrap;html=1;arcSize=31;spacingTop=4;" vertex="1" parent="1">
          <mxGeometry x="157" y="560" width="346" height="50" as="geometry" />
        </mxCell>
        <mxCell id="PVPEMX5kZ_Wx4r42kiYc-74" style="edgeStyle=orthogonalEdgeStyle;rounded=0;orthogonalLoop=1;jettySize=auto;html=1;exitX=1;exitY=0.25;exitDx=0;exitDy=0;entryX=0;entryY=0.5;entryDx=0;entryDy=0;" edge="1" parent="1" source="PVPEMX5kZ_Wx4r42kiYc-49" target="PVPEMX5kZ_Wx4r42kiYc-67">
          <mxGeometry relative="1" as="geometry" />
        </mxCell>
        <mxCell id="PVPEMX5kZ_Wx4r42kiYc-77" value="" style="group" vertex="1" connectable="0" parent="1">
          <mxGeometry x="840" y="340" width="80" height="65" as="geometry" />
        </mxCell>
        <mxCell id="PVPEMX5kZ_Wx4r42kiYc-60" value="Labels" style="text;html=1;align=center;verticalAlign=middle;whiteSpace=wrap;rounded=0;" vertex="1" parent="PVPEMX5kZ_Wx4r42kiYc-77">
          <mxGeometry width="60" height="30" as="geometry" />
        </mxCell>
        <mxCell id="PVPEMX5kZ_Wx4r42kiYc-83" value="" style="whiteSpace=wrap;html=1;aspect=fixed;fillColor=#3B3B3B;" vertex="1" parent="PVPEMX5kZ_Wx4r42kiYc-77">
          <mxGeometry x="20" y="30" width="20" height="20" as="geometry" />
        </mxCell>
        <mxCell id="PVPEMX5kZ_Wx4r42kiYc-81" style="edgeStyle=orthogonalEdgeStyle;rounded=0;orthogonalLoop=1;jettySize=auto;html=1;entryX=1;entryY=0.5;entryDx=0;entryDy=0;" edge="1" parent="1" target="PVPEMX5kZ_Wx4r42kiYc-34">
          <mxGeometry relative="1" as="geometry">
            <mxPoint x="860" y="380" as="sourcePoint" />
          </mxGeometry>
        </mxCell>
        <mxCell id="PVPEMX5kZ_Wx4r42kiYc-82" style="edgeStyle=orthogonalEdgeStyle;rounded=0;orthogonalLoop=1;jettySize=auto;html=1;entryX=1;entryY=0.5;entryDx=0;entryDy=0;" edge="1" parent="1" target="PVPEMX5kZ_Wx4r42kiYc-67">
          <mxGeometry relative="1" as="geometry">
            <mxPoint x="870" y="390" as="sourcePoint" />
            <Array as="points">
              <mxPoint x="870" y="700" />
            </Array>
          </mxGeometry>
        </mxCell>
        <mxCell id="PVPEMX5kZ_Wx4r42kiYc-86" value="" style="rounded=1;whiteSpace=wrap;html=1;arcSize=5;container=1;" vertex="1" parent="1">
          <mxGeometry x="157" y="800" width="343" height="360" as="geometry" />
        </mxCell>
        <mxCell id="PVPEMX5kZ_Wx4r42kiYc-97" value="Final AUC" style="text;html=1;align=center;verticalAlign=middle;whiteSpace=wrap;rounded=0;" vertex="1" parent="PVPEMX5kZ_Wx4r42kiYc-86">
          <mxGeometry x="141.5" y="165" width="60" height="30" as="geometry" />
        </mxCell>
        <mxCell id="PVPEMX5kZ_Wx4r42kiYc-87" value="Final model" style="text;html=1;align=center;verticalAlign=middle;whiteSpace=wrap;rounded=0;" vertex="1" parent="1">
          <mxGeometry x="160" y="800" width="340" height="30" as="geometry" />
        </mxCell>
        <mxCell id="PVPEMX5kZ_Wx4r42kiYc-94" style="edgeStyle=orthogonalEdgeStyle;rounded=0;orthogonalLoop=1;jettySize=auto;html=1;entryX=0;entryY=0.75;entryDx=0;entryDy=0;exitX=1.005;exitY=0.137;exitDx=0;exitDy=0;exitPerimeter=0;" edge="1" parent="1" source="PVPEMX5kZ_Wx4r42kiYc-89" target="PVPEMX5kZ_Wx4r42kiYc-28">
          <mxGeometry relative="1" as="geometry" />
        </mxCell>
        <mxCell id="PVPEMX5kZ_Wx4r42kiYc-89" value="" style="rounded=1;whiteSpace=wrap;html=1;arcSize=5;container=1;" vertex="1" parent="1">
          <mxGeometry x="-343" y="405" width="343" height="370" as="geometry" />
        </mxCell>
        <mxCell id="PVPEMX5kZ_Wx4r42kiYc-90" value="Pretrained model" style="text;html=1;align=center;verticalAlign=middle;whiteSpace=wrap;rounded=0;" vertex="1" parent="PVPEMX5kZ_Wx4r42kiYc-89">
          <mxGeometry x="3" width="340" height="30.833333333333336" as="geometry" />
        </mxCell>
        <mxCell id="PVPEMX5kZ_Wx4r42kiYc-96" value="Initial AUC" style="text;html=1;align=center;verticalAlign=middle;whiteSpace=wrap;rounded=0;" vertex="1" parent="PVPEMX5kZ_Wx4r42kiYc-89">
          <mxGeometry x="141.5" y="170" width="60" height="30" as="geometry" />
        </mxCell>
      </root>
    </mxGraphModel>
  </diagram>
</mxfile>
